<svg xmlns="http://www.w3.org/2000/svg" viewBox="0 0 64 64" width="64" height="64">
  <defs>
    <linearGradient id="bgGrad" x1="0%" y1="0%" x2="100%" y2="100%">
      <stop offset="0%" stop-color="#4f46e5" />
      <stop offset="50%" stop-color="#6366f1" />
      <stop offset="100%" stop-color="#10b981" />
    </linearGradient>
    <linearGradient id="iconGrad" x1="0%" y1="0%" x2="100%" y2="100%">
      <stop offset="0%" stop-color="#ffffff" />
      <stop offset="100%" stop-color="#cbd5e1" />
    </linearGradient>
  </defs>
  <rect width="64" height="64" rx="16" fill="url(#bgGrad)" />
  <rect x="3" y="3" width="58" height="58" rx="13" fill="#090d16" opacity="0.85" />
  
  <!-- Neural Data Circuit / Database Icon -->
  <g transform="translate(12, 12)" fill="none" stroke="url(#iconGrad)" stroke-width="2.5" stroke-linecap="round" stroke-linejoin="round">
    <ellipse cx="20" cy="8" rx="14" ry="5" />
    <path d="M6 8v8c0 2.76 6.27 5 14 5s14-2.24 14-5V8" />
    <path d="M6 16v8c0 2.76 6.27 5 14 5s14-2.24 14-5v-8" />
    
    <!-- Sparkle Stars -->
    <path d="M30 4 L32 8 L36 10 L32 12 L30 16 L28 12 L24 10 L28 8 Z" fill="#10b981" stroke="none" />
  </g>
</svg>
